# xmcd
#
# Track frame offsets: 
#        150
#        15577
#        28775
#        53705
#        66222
#        71022
#        98617
#        115377
#        128172
#        137165
#        147765
#        162862
#
# Disc length: 2319 seconds
#
# Revision: 2
# Processed by: cddbd v1.5.2PL0 Copyright (c) Steve Scherf et al.
# Submitted via: ExactAudioCopy v0.99pb5
#
DISCID=a5090d0c
DTITLE=Billie Holliday - What a Little Moonlight Can Do
DYEAR=1993
DGENRE=Jazz
TTITLE0=Everything Happens to Me
TTITLE1=Please Don't Talk About Me When I'm Gone (Part 1)
TTITLE2=God Bless The Child
TTITLE3=Prelude to a Kiss
TTITLE4=I Must Have That Man
TTITLE5=Jeepers Creepers
TTITLE6=(I Don't Stand) A Ghost Of A Chance With You
TTITLE7=I Don't Want to Cry Anymore
TTITLE8=Please Don't Talk About Me When I'm Gone (Part 2)
TTITLE9=T'ain't Nobody's Bizness if I Do
TTITLE10=They Can't Take That Away From Me
TTITLE11=What a Little Moonlight Can Do
EXTD=\nYEAR: 1993  ID3G:  17
EXTT0=
EXTT1=
EXTT2=
EXTT3=
EXTT4=
EXTT5=
EXTT6=
EXTT7=
EXTT8=
EXTT9=
EXTT10=
EXTT11=
PLAYORDER=
